<svg xmlns="http://www.w3.org/2000/svg" viewBox="0 0 105.34 159.27"><defs><style>.cls-1,.cls-4{fill:#1d1d1b;}.cls-1,.cls-2,.cls-3{fill-rule:evenodd;}.cls-2{fill:#fff;}.cls-3{fill:#dadada;}</style></defs><g id="Layer_2" data-name="Layer 2"><g id="Layer_1-2" data-name="Layer 1"><polygon class="cls-1" points="0 0 104.72 0 104.72 140.5 0 140.5 0 0 0 0"/><path class="cls-2" d="M91.11,54.82c3.25-7.1.72-14.53-4.89-24.08C81.15,22.1,82.06,11.42,85.73,0h19V46.44c-3,3.82-7,8.73-7,8.73,8.41-18.76,6.7-33.94-.7-47.11,4.85,11.84,8.27,31.6-5.93,46.76ZM37.86,140.5H0V126.79c12.38-2.56,21.81-17.77,48.63-8.34C30.46,134.31,3.94,133.11,5.57,133.1,18.85,136,43,127.82,54,117.58c-.38,8.66-6.44,16.16-16.17,22.92ZM0,71V65.75c10.56,6.33,26.38,2.86,35.21,7.9,10.21,5.83,6.39,15.81,19,22.84-13.19,1.68-29.94-3.36-41-15.87,10.37,14.54,24.32,21,43.23,19,0,0-29,24.54-44.45-5.06C9.12,89,3.82,78.57,0,71ZM18.12,10C40,11.32,38.24,24.56,44.45,34.25c12.09,18.88,32.09,12.89,36.6,24.23,0,0,.18-28.24-28.06-35,1.22,0,25.29,1.53,33.47,35C92.08,7.14,40.25,13.5,18.12,10ZM3.48,28.15c11.83,35.25,33.14,47,60.32,44.11C53.2,65.44,41.58,59.67,33.64,50.2c11.17,7.59,22,12.63,33,18.22C60.77,48.83,46.05,32.85,3.48,28.15Z"/><path class="cls-3" d="M66.24,140.5a53.55,53.55,0,0,1,38.48-82.89V64c-23.6,4-41.51,23.05-41.51,46a44.56,44.56,0,0,0,12.3,30.54Z"/><path class="cls-2" d="M75.26,140.5a46,46,0,0,1-13.37-32.32c0-24,18.68-43.79,42.83-46.73V140.5Z"/><polygon class="cls-4" points="0.47 144.73 6.25 144.73 6.25 147.58 3.94 147.58 3.94 150.28 6.1 150.28 6.1 152.99 3.94 152.99 3.94 156.12 6.48 156.12 6.48 158.97 0.47 158.97 0.47 144.73 0.47 144.73"/><path class="cls-4" d="M10.66,147.3l-.06,1.1a2.84,2.84,0,0,1,.93-1,2.24,2.24,0,0,1,1.21-.33,2.33,2.33,0,0,1,2.1,1.31,3.19,3.19,0,0,1,.95-1,2.15,2.15,0,0,1,1.17-.33,2.2,2.2,0,0,1,1.4.43,2,2,0,0,1,.71,1.08,9.3,9.3,0,0,1,.16,2.07V159H16v-7.61a10.72,10.72,0,0,0-.09-1.85.43.43,0,0,0-.44-.36.44.44,0,0,0-.46.36,9.31,9.31,0,0,0-.1,1.85V159H11.68v-7.42a14.63,14.63,0,0,0-.08-2.05.4.4,0,0,0-.43-.35.49.49,0,0,0-.38.18.75.75,0,0,0-.17.44c0,.18,0,.54,0,1.11V159H7.38V147.3Z"/><path class="cls-4" d="M23.66,147.3l-.06,1.1a2.91,2.91,0,0,1,.92-1,2.3,2.3,0,0,1,1.22-.33,2.33,2.33,0,0,1,2.1,1.31,3.19,3.19,0,0,1,.95-1,2.15,2.15,0,0,1,1.17-.33,2.2,2.2,0,0,1,1.4.43,2,2,0,0,1,.71,1.08,9.3,9.3,0,0,1,.16,2.07V159H29v-7.61a10.72,10.72,0,0,0-.09-1.85.43.43,0,0,0-.44-.36.44.44,0,0,0-.46.36,9.31,9.31,0,0,0-.1,1.85V159H24.68v-7.42a14.63,14.63,0,0,0-.08-2.05.4.4,0,0,0-.43-.35.48.48,0,0,0-.38.18.75.75,0,0,0-.17.44c0,.18,0,.54,0,1.11V159H20.37V147.3Z"/><path class="cls-4" d="M36.34,151.82H33.22V151a5.69,5.69,0,0,1,.3-2.08,2.76,2.76,0,0,1,1.17-1.3,4.16,4.16,0,0,1,2.29-.56,4.27,4.27,0,0,1,2.54.63,2.49,2.49,0,0,1,1,1.57,25.61,25.61,0,0,1,.17,3.82V159H37.49v-1a2.25,2.25,0,0,1-.79.94,2,2,0,0,1-1.15.31,2.68,2.68,0,0,1-1.6-.52,2.76,2.76,0,0,1-.73-2.29v-1a3,3,0,0,1,.39-1.79,5.48,5.48,0,0,1,1.92-1.11,5.23,5.23,0,0,0,1.75-.92,2.52,2.52,0,0,0,.12-1,3.55,3.55,0,0,0-.13-1.19.43.43,0,0,0-.43-.28c-.22,0-.36.08-.41.24a4.56,4.56,0,0,0-.09,1.21v1.22Zm1.06,1.6a2.55,2.55,0,0,0-.93,1.05,4.57,4.57,0,0,0-.13,1.21,4,4,0,0,0,.11,1.17.45.45,0,0,0,.45.27.39.39,0,0,0,.4-.21,3.62,3.62,0,0,0,.1-1.09v-2.4Z"/><path class="cls-4" d="M49.48,147.3V159H46.1l0-1a2.36,2.36,0,0,1-.85.89,2.2,2.2,0,0,1-1.16.29,2.49,2.49,0,0,1-1.25-.28,1.79,1.79,0,0,1-.72-.75,2.81,2.81,0,0,1-.3-1c0-.34,0-1,0-2V147.3h3.32v7.94a9,9,0,0,0,.08,1.62.39.39,0,0,0,.43.26c.24,0,.39-.09.43-.27a10.4,10.4,0,0,0,.07-1.7V147.3Z"/><path class="cls-4" d="M57.47,151H54.52v-.64a3.4,3.4,0,0,0-.09-1c0-.15-.2-.22-.43-.22a.48.48,0,0,0-.42.2,1,1,0,0,0-.14.59,3.53,3.53,0,0,0,.07.79,1.28,1.28,0,0,0,.42.55,9,9,0,0,0,1.44.87,5.3,5.3,0,0,1,1.9,1.43,3.48,3.48,0,0,1,.45,1.94,5.2,5.2,0,0,1-.34,2.15,2.35,2.35,0,0,1-1.16,1.12,4.48,4.48,0,0,1-2,.39,5.15,5.15,0,0,1-2.17-.42,2.38,2.38,0,0,1-1.23-1.14,5.32,5.32,0,0,1-.34-2.19v-.56h2.95v.74a3.89,3.89,0,0,0,.11,1.22.43.43,0,0,0,.44.29.59.59,0,0,0,.49-.19,1.57,1.57,0,0,0,.14-.8,1.89,1.89,0,0,0-.18-1,15.79,15.79,0,0,0-1.93-1.25,4.29,4.29,0,0,1-1.79-1.59,4.08,4.08,0,0,1-.32-1.71,4.68,4.68,0,0,1,.34-2.06,2.27,2.27,0,0,1,1.18-1,4.77,4.77,0,0,1,1.92-.36,5.1,5.1,0,0,1,1.85.29,2.93,2.93,0,0,1,1.17.78,2.13,2.13,0,0,1,.49.9,6.58,6.58,0,0,1,.09,1.29V151Z"/><path class="cls-4" d="M67.67,144.73l2,14.24H66.1l-.17-2.56H64.69L64.48,159H60.89l1.76-14.24Zm-1.84,9.16c-.18-1.62-.35-3.61-.53-6q-.52,4.09-.65,6Z"/><polygon class="cls-4" points="72.78 156.07 72.78 158.97 70.27 158.97 70.27 156.07 72.78 156.07 72.78 156.07"/><path class="cls-4" d="M81.72,150H78.26v-1.29a6.49,6.49,0,0,0-.1-1.53.44.44,0,0,0-.47-.31.45.45,0,0,0-.44.26,5,5,0,0,0-.11,1.36v6.83a4.78,4.78,0,0,0,.11,1.27.45.45,0,0,0,.46.3.5.5,0,0,0,.52-.34,4.29,4.29,0,0,0,.14-1.34v-1.69h-.7v-2.16h4V159H79.54l-.32-1a2.46,2.46,0,0,1-.89,1,2.38,2.38,0,0,1-1.27.33,3.19,3.19,0,0,1-1.64-.45,3.34,3.34,0,0,1-1.15-1.12,3.73,3.73,0,0,1-.5-1.41,19.15,19.15,0,0,1-.1-2.2v-4.23a14.92,14.92,0,0,1,.21-3,3,3,0,0,1,1.18-1.69,4,4,0,0,1,2.53-.77,4.42,4.42,0,0,1,2.52.67,3,3,0,0,1,1.31,1.59,9.06,9.06,0,0,1,.3,2.67V150Z"/><polygon class="cls-4" points="85.18 156.07 85.18 158.97 82.67 158.97 82.67 156.07 85.18 156.07 85.18 156.07"/><polygon class="cls-4" points="89.64 144.73 89.64 158.97 86.18 158.97 86.18 144.73 89.64 144.73 89.64 144.73"/><polygon class="cls-4" points="93.15 156.07 93.15 158.97 90.64 158.97 90.64 156.07 93.15 156.07 93.15 156.07"/><path class="cls-4" d="M94.15,144.73H96.6a17.22,17.22,0,0,1,3.32.2,2.3,2.3,0,0,1,1.42,1,5,5,0,0,1,.54,2.66,4.35,4.35,0,0,1-.38,2.23,2,2,0,0,1-1.53.69,2.53,2.53,0,0,1,1.39.73,2.28,2.28,0,0,1,.44.84,14,14,0,0,1,.08,2.1V159H98.67v-4.73a3.53,3.53,0,0,0-.17-1.42c-.12-.18-.41-.27-.89-.27V159H94.15V144.73Zm3.46,2.43v3.17a1.49,1.49,0,0,0,.82-.17c.16-.11.24-.49.24-1.11v-.78a.88.88,0,0,0-1.06-1.11Z"/><polygon class="cls-4" points="105.34 156.07 105.34 158.97 102.83 158.97 102.83 156.07 105.34 156.07 105.34 156.07"/><polygon class="cls-4" points="48.43 143.3 48.43 145.27 46.73 145.27 46.73 143.3 48.43 143.3 48.43 143.3"/><polygon class="cls-4" points="44.55 143.3 44.55 145.27 42.85 145.27 42.85 143.3 44.55 143.3 44.55 143.3"/></g></g></svg>