<svg xmlns="http://www.w3.org/2000/svg" viewBox="0 0 76.32 49.35"><defs><style>.cls-1{fill:#fed715;}.cls-2{fill:#ffbf13;}.cls-3{fill:#53a235;}.cls-4{fill:#21781f;}</style></defs><g id="Layer_2" data-name="Layer 2"><g id="Layer_1-2" data-name="Layer 1"><path class="cls-1" d="M0,34.08S11.69,50.86,32.07,49.24c11.81-.93,35.08-10.4,41.83-27,5.14-12.64.23-21.16.23-21.16a15.84,15.84,0,0,0-8,3.86,15.33,15.33,0,0,0-5-4.93C58.84.7,53,5.14,53,7.59c-1.66-1.9-3.91-5.32-6-6.42-.88,1-4.87,4.47-5.71,7.28C39.12,6.15,35,3.79,32.31,3.74c-1.57,1.7-4.35,6.5-4.33,10a15.3,15.3,0,0,0-9.08-1.23c-.81,1.87-.68,5.9-.24,8-3.66-.16-7.31.44-9.93,2.35a14.46,14.46,0,0,0,1.32,6.31C7.93,29,2.05,31.84,0,34.08Z"/><path class="cls-2" d="M8.54,42.21s12.3,10,27.88,6.34c9.79-2.27,23.65-6.48,33.11-18.88C76.74,20.23,76.31,11,76.31,11a32.53,32.53,0,0,0-6.77,3.83,5.88,5.88,0,0,0-2.9-3c-2.08.74-7.9,4.47-8.53,6.2-.9-1.17-1.93-3.35-3.38-3.9-1,.8-5,3.66-6.4,5.72a8.18,8.18,0,0,0-6.18-2.39c-1.68,1.36-5.09,5-5.91,7.5a13,13,0,0,0-7.13.08A13.36,13.36,0,0,0,27,30.72a19.81,19.81,0,0,0-8.67,2.69,8,8,0,0,0-.42,4.3C16.22,37.82,10.75,40.42,8.54,42.21Z"/><path class="cls-3" d="M29.31,49.24s9.16-10.47,16.83-14.7,15.31-4.44,23.39-4.87c-6.27,8.07-13,11.58-17.88,14.28A40.89,40.89,0,0,1,29.31,49.24Z"/><path class="cls-4" d="M37.32,45.43s3.28-1.8,5-1.21c.89-2.65,1.69-4.55,2.52-5.09a12.94,12.94,0,0,1,4.17.48c.75-1.51,2.25-3.39,3.46-3.89a7.42,7.42,0,0,1,2.8,1.8c1.29-1.71,2.65-2.9,3.76-3.09a6.84,6.84,0,0,1,2.37,3.29C60.34,38.56,49,48.33,37.17,48.87A7.68,7.68,0,0,1,37.32,45.43Z"/></g></g></svg>