<svg xmlns="http://www.w3.org/2000/svg" viewBox="0 0 81.14 49.44"><defs><style>.cls-1{fill:#fed715;}.cls-2{fill:#ffbf13;}.cls-3{fill:#53a235;}.cls-4{fill:#21781f;}</style></defs><g id="Layer_2" data-name="Layer 2"><g id="Layer_1-2" data-name="Layer 1"><path class="cls-1" d="M0,12.61S2.38,31.16,22.12,40.12c13.44,6.1,34.9,5.78,49.53-5.9C82.32,25.7,81.1,15.28,81.1,15.28s-4.9-1.07-7.82,1c-.2-2.54-2.73-7-3.36-7.6-2.41-.39-7,.72-9.12,2.95C61.41,8.1,58,5.4,56.61,3.5a12.08,12.08,0,0,0-8.32,4.06c-.91-3-4.52-6.36-6.87-7.56A12.88,12.88,0,0,0,34.7,6a15.28,15.28,0,0,0-7.89-4.63A18.25,18.25,0,0,0,22.7,8.56c-2.33-2.3-5.35-4.23-8.54-3.65-2.05,1.61-3.16,4.87-3,7.68A16.19,16.19,0,0,0,0,12.61Z"/><path class="cls-2" d="M4.13,23.65S10.85,38,26.44,41.53c9.81,2.23,24.11,4.49,38-2.53,10.6-5.35,14.26-13.85,14.26-13.85a10.33,10.33,0,0,0-7,1.11,8.28,8.28,0,0,0-4.31-6c-2.2-.25-5.08,2.14-6.39,3.43a10.32,10.32,0,0,0-4.53-5.66c-2.85-.18-4.88,1-6.84,2.86-.47-1.77-4.84-4.66-6.88-5.38-2.11.49-4.42,2.83-6.23,4.7a13,13,0,0,0-6.46-3,13.25,13.25,0,0,0-4.36,4.17C23,20.33,21.05,18.92,18,19.25c-.92.83-3.38,3.45-3.48,4.45C10.58,22.32,6.56,22.36,4.13,23.65Z"/><path class="cls-3" d="M19.68,39.11s7.07-7.16,21.4-7c14.05.12,20,4.8,23.4,6.94a56.75,56.75,0,0,1-22.19,5.21C34.78,44.62,30.31,44.05,19.68,39.11Z"/><path class="cls-4" d="M28.61,39.11s3.74-.18,5,1.1c1.06-2.05,2.47-3.43,3.45-3.56A9.55,9.55,0,0,1,41.67,39c1.19-1.28,2.74-2.44,4-2.36a6,6,0,0,1,2.5,3.21c1.91-1,3.41-1.86,4.49-1.55,1.31,1,2.75,3,2.44,4.05-1.32.3-17.27,4.49-28.17-.19A7.76,7.76,0,0,1,28.61,39.11Z"/><path class="cls-4" d="M26.65,42.12s-7.46,2.58-9.22,6.43A41.31,41.31,0,0,1,28,46.65c3.58,0,12.1,0,14.37-.13,2.45-.11,9.86.1,11.11,0,4.38-.37,11.18,2.93,11.18,2.93s-3.62-6.76-9.46-7.1C52.9,42.22,26.65,42.12,26.65,42.12Z"/></g></g></svg>