<svg xmlns="http://www.w3.org/2000/svg" viewBox="0 0 76.32 49.35"><defs><style>.cls-1{fill:#fed715;}.cls-2{fill:#ffbf13;}.cls-3{fill:#53a235;}.cls-4{fill:#21781f;}</style></defs><g id="Layer_2" data-name="Layer 2"><g id="Layer_1-2" data-name="Layer 1"><path class="cls-1" d="M0,34.08S11.69,50.86,32.07,49.24c11.81-.93,35.08-10.4,41.83-27,5.14-12.64.23-21.16.23-21.16s-4.87,1.18-6.61,4.3C66.24,3.17,62,.27,61.18,0c-2.34.7-6,3.69-6.92,6.63-1-3.42-5.21-4.36-7.31-5.46a12.08,12.08,0,0,0-5.71,7.28c-2.12-2.3-6.84-3.75-9.48-3.8A12.89,12.89,0,0,0,28.34,13a15.34,15.34,0,0,0-9.12-.72c-.82,1.87-1,6.15-.56,8.25-3.1-1.05-6.67-1.47-9.28.45-1.14,2.34-.72,5.76.67,8.21A16.2,16.2,0,0,0,0,34.08Z"/><path class="cls-2" d="M8.54,42.21s12.3,10,27.88,6.34c9.79-2.27,23.65-6.48,33.11-18.88C76.74,20.23,76.31,11,76.31,11a10.34,10.34,0,0,0-5.79,4A8.25,8.25,0,0,0,64,11.55c-2.09.74-3.63,4.14-4.25,5.87a10.31,10.31,0,0,0-6.55-3.11c-2.64,1.08-4,3-4.91,5.56-1.19-1.39-6.39-2.08-8.53-1.84-1.68,1.36-2.74,4.48-3.56,7a13,13,0,0,0-7.13.08A13.36,13.36,0,0,0,27,30.72c-3,.26-5.32-.15-7.91,1.47-.47,1.15-1.53,4.58-1.18,5.52C13.76,38.19,10.16,40,8.54,42.21Z"/><path class="cls-3" d="M29.27,49.33s3.24-9.54,16.18-15.68c12.69-6,20.07-4.41,24.08-4A56.75,56.75,0,0,1,51.84,44C45.27,47.69,41,49.13,29.27,49.33Z"/><path class="cls-4" d="M37.32,45.43s3.28-1.8,5-1.21c.06-2.31.73-4.17,1.56-4.71a9.62,9.62,0,0,1,5.13.1c.51-1.66,1.4-3.38,2.61-3.88a6.09,6.09,0,0,1,3.65,1.79c1.29-1.71,2.26-3.16,3.37-3.35,1.59.28,3.77,1.47,4,2.58C61.54,37.59,49,48.33,37.17,48.87A7.68,7.68,0,0,1,37.32,45.43Z"/></g></g></svg>