<svg xmlns="http://www.w3.org/2000/svg" viewBox="0 0 76.49 91.71"><defs><style>.cls-1{fill:#21781f;}.cls-2{fill:#53a235;}</style></defs><g id="Layer_2" data-name="Layer 2"><g id="Layer_2-2" data-name="Layer 2"><path class="cls-1" d="M76.49,35.42s-18.66-5.48-25.87.44a17.36,17.36,0,0,0-6.25,10.08,6.65,6.65,0,0,0,2.49,6.62c2,1.48,5.19,2.8,10.27,2.37C61.57,54.43,67.19,51.41,76.49,35.42Z"/><path class="cls-1" d="M2.88,64.37S17.8,61.08,23.14,66.1a13.66,13.66,0,0,1,4.36,8.23,5.22,5.22,0,0,1-2.3,5.06C23.57,80.45,21,81.32,17,80.71,13.56,80.08,9.32,77.41,2.88,64.37Z"/><path class="cls-1" d="M0,26.43s17.1-3.78,23.22,2a15.71,15.71,0,0,1,5,9.44,5.94,5.94,0,0,1-2.65,5.79c-1.86,1.21-4.83,2.21-9.37,1.51C12.24,44.43,7.38,41.37,0,26.43Z"/><path class="cls-2" d="M34.47,0s-4,37.71-3.51,41.49C18.09,32.67,9.18,30.24,9.18,30.24S23.71,38.1,27.23,42c4,4.44,4.09,6.51,4.09,6.51s.54,20.34,2.88,32.22c-2.88-1.62-9.54-8.55-23.31-13.41C25.11,76.05,28.71,80.1,28.71,80.1a23.43,23.43,0,0,1,6.21,8.19,9.84,9.84,0,0,1,.36,3.42l5-.18s-2.52-27.18-2.7-30.24c2-5.4,3.78-7.56,6.84-10.26a95.19,95.19,0,0,1,21.6-12.15S48.33,43.47,36.54,54.63A265.43,265.43,0,0,1,39.06.09C37,0,34.47,0,34.47,0Z"/></g></g></svg>