<svg xmlns="http://www.w3.org/2000/svg" viewBox="0 0 76.49 93.6"><defs><style>.cls-1{fill:#53a235;stroke:#21781f;stroke-miterlimit:10;}.cls-2{fill:#21781f;}.cls-3{fill:#4f9126;}</style></defs><g id="Layer_2" data-name="Layer 2"><g id="Layer_2-2" data-name="Layer 2"><path class="cls-1" d="M34.38.56s-4,38.52-3.42,42.3a20.36,20.36,0,0,1-3.42-2L27,43l4.32,6.84s.54,20.34,2.88,32.22c-2.88-1.62-4.32-3.6-6.84-5.22a2.76,2.76,0,0,0-1.44,2.34s7.92,8.82,9,10.44a9.84,9.84,0,0,1,.36,3.42l5-.18s-2.52-27.18-2.7-30.24C39.24,61,41.4,55.1,44.46,52.4a2.3,2.3,0,0,0,.18-2.88S39.24,52,36.54,56c-.36-4.32-2.7-24.66,3.06-53.1C38.7,1.1,34.38.56,34.38.56Z"/><path class="cls-2" d="M0,27.8s17.1-3.78,23.22,2a15.69,15.69,0,0,1,5,9.44A5.94,5.94,0,0,1,25.57,45c-1.86,1.21-4.83,2.21-9.37,1.51C12.24,45.8,7.38,42.74,0,27.8Z"/><path class="cls-3" d="M0,27.8s18.59-4.64,24.71,3.37a12.55,12.55,0,0,1,3.41,10.31S17,33.51,8.69,31.35c2.34,1.26,15.84,8.78,18.54,12-1.08,2-7.79,6-15.62,1.12C8,42.15,3.06,35.18,0,27.8Z"/><path class="cls-2" d="M2.88,65.74s14.92-3.29,20.26,1.73A13.66,13.66,0,0,1,27.5,75.7a5.22,5.22,0,0,1-2.3,5.06C23.57,81.82,21,82.69,17,82.08,13.56,81.45,9.32,78.78,2.88,65.74Z"/><path class="cls-3" d="M2.88,65.74s16.22-4,21.56,3a10.94,10.94,0,0,1,3,9s-9.73-7-17-8.84c2,1.1,13.82,7.66,16.18,10.49-.94,1.73-6.79,5.22-13.63,1C9.87,78.27,5.55,72.18,2.88,65.74Z"/><path class="cls-2" d="M76.49,36.79s-18.66-5.48-25.87.44a17.36,17.36,0,0,0-6.25,10.08,6.65,6.65,0,0,0,2.49,6.62c2,1.48,5.19,2.8,10.27,2.37C61.57,55.8,67.19,52.78,76.49,36.79Z"/><path class="cls-3" d="M76.49,36.79s-20.24-6.54-27.62,1.87A14,14,0,0,0,44.3,49.82s13-8,22.3-9.75C63.91,41.29,48.39,48.6,45.16,52c1,2.28,8.17,7.22,17.21,2.42C66.53,52.08,72.54,44.73,76.49,36.79Z"/></g></g></svg>